<?xml version="1.0" encoding="utf-8"?>
<!-- Svg Vector Icons : http://www.onlinewebfonts.com/icon -->
<!DOCTYPE svg PUBLIC "-//W3C//DTD SVG 1.1//EN" "http://www.w3.org/Graphics/SVG/1.1/DTD/svg11.dtd">
<svg version="1.1" xmlns="http://www.w3.org/2000/svg" xmlns:xlink="http://www.w3.org/1999/xlink" x="0px" y="0px" viewBox="0 0 256 256" enable-background="new 0 0 256 256" xml:space="preserve">
<metadata> Svg Vector Icons : http://www.onlinewebfonts.com/icon </metadata>
<g><g><g><path stroke-width="2" fill-opacity="0" stroke="#000000"  d="M133.5,26.9c-1.9,0.2-3.6,0.5-3.9,0.8c-0.5,0.5-3.3,9.6-7,22.9c-4.8,17.3-8.1,25.5-14.4,34.9c-3.2,4.9-10.5,14.3-11.5,15c-0.2,0.1-0.6-0.2-0.8-0.8c-0.5-1.7-5-6.1-7.6-7.5L86,91H54.3H22.6l-2.6,1.3c-4.6,2.4-8.3,7.4-9.5,12.8c-0.3,1.3-0.5,20.7-0.5,53.8c0,50.2,0,51.9,1,54.8c1.7,5.5,5,9.4,10,11.8l2.6,1.2h30.7H85l3.2-1.6c3.6-1.8,6.4-4.7,8.1-8.2c0.6-1.2,1.2-2.2,1.3-2.2c13.9,7.1,23.8,11,34.3,13.3c4.2,0.9,6.4,1,33.6,1.2c18.1,0.1,31.3,0,35-0.3c10.2-0.9,16.5-3.6,22.5-9.7c5.6-5.7,9.6-15.6,11.3-27.7c0.3-2.2,0.6-14.9,0.8-31.1l0.2-27.3l2.7-2.8c5.3-5.4,7.9-11.3,7.9-17.9c0-3.3-0.2-4.2-1.4-6.7c-1.8-3.6-6.1-8.2-9.4-10l-2.5-1.4h-32.4c-25.5,0-32.6-0.2-33.5-0.7c-2.8-1.5-3.7-6.3-4.4-22c-0.6-13.8-1.2-20-2.6-25.5C156.2,31.8,148,25.8,133.5,26.9z M144.7,35.7c7.3,4,9.3,11.2,10.5,38c0.8,17.5,2.7,23.7,8.2,26.7l2,1l32.2-0.2l32.2-0.2l2.2,1.3c2.6,1.6,5.7,5.3,6.5,8c0.5,1.6,0.4,2.4-0.2,5c-0.5,1.8-1.3,4-2,5.1c-1.5,2.7-5.1,6.6-7.1,7.9l-1.7,1v27.8c0,29.5-0.2,34.1-2.4,42.4c-3,11.6-9.9,19.1-19.6,21.4c-2.5,0.6-8.3,0.7-35.2,0.7c-30.1,0-32.6,0-37.1-1c-8.4-1.6-21.2-6.5-30.8-11.7l-4-2.1v-48.7v-48.7l3.8-4.3c14.9-17.2,20.9-28.8,27.5-53.2c0.9-3.4,2.4-8.9,3.4-12.1l1.8-5.9l3.6,0.2C141.4,34.3,142.7,34.7,144.7,35.7z M85.2,98.8c2.5,1.2,4.7,4,5.5,6.9c1.1,3.7,1,102.3,0,106c-0.8,2.7-3.3,5.9-5.5,7c-2,1-59.8,1-61.8,0c-2.2-1.1-4.7-4.3-5.5-7c-1.1-3.7-1.1-102.3,0-106c0.8-2.8,3-5.6,5.4-6.9c1.7-0.9,3-0.9,31-1C82.4,97.9,83.4,97.9,85.2,98.8z"/><path stroke-width="2" fill-opacity="0" stroke="#000000"  d="M50.8,163.2c-8.3,1.2-16,8.4-17.9,16.7c-1.2,5.2-0.2,11.7,2.5,16.3c1.7,2.9,6.4,7.1,9.6,8.6c14.3,6.8,31.2-3.9,31.2-19.7C76.2,171.3,64.4,161.2,50.8,163.2z M60.9,171.6c6.3,3.2,9.5,10.6,7.5,17.2c-1.5,5.2-5.4,8.9-11,10.3c-2.9,0.7-3.3,0.7-6.2,0c-10.7-2.6-15-14.2-8.7-23.1c1.6-2.2,4.1-4.2,6.9-5.2C52.1,169.9,58.3,170.3,60.9,171.6z"/></g></g></g>
</svg>