<?xml version="1.0" encoding="utf-8"?>
<!-- Svg Vector Icons : http://www.onlinewebfonts.com/icon -->
<!DOCTYPE svg PUBLIC "-//W3C//DTD SVG 1.1//EN" "http://www.w3.org/Graphics/SVG/1.1/DTD/svg11.dtd">
<svg version="1.1" xmlns="http://www.w3.org/2000/svg" xmlns:xlink="http://www.w3.org/1999/xlink" x="0px" y="0px" viewBox="0 0 256 256" enable-background="new 0 0 256 256" xml:space="preserve">
<metadata> Svg Vector Icons : http://www.onlinewebfonts.com/icon </metadata>
<g><g><path stroke-width="2" fill-opacity="0" stroke="#000000"  d="M219.5,66.4H73.7c-13.9,0-23.8,11-23.8,24.4v93.3c0,13.8,9.9,25.1,23.8,25.1h18.2l-0.7,26.6c-0.1,2.7,1.4,5.2,3.9,6.5c1.1,0.6,2.2,0.8,3.4,0.8c1.5,0,3-0.4,4.2-1.3l46.2-32.6h70.5c13.9,0,26.5-11.2,26.5-25.1V90.9C246,77.4,233.4,66.4,219.5,66.4L219.5,66.4z M231.5,184.1c0,5.9-6.3,10.8-12,10.8h-72.9c-1.5,0-3,0.5-4.2,1.3l-36.2,25.5l0.5-19.5c0-1.9-0.7-3.8-2-5.2c-1.4-1.4-3.2-2.1-5.2-2.1H73.7c-5.8,0-9.3-4.9-9.3-10.8V90.9c0-5.7,3.3-10.2,9.3-10.2h145.7c6,0,12,4.5,12,10.2L231.5,184.1L231.5,184.1z M33.8,27.1h145.7c6,0,12,4.5,12,10.2v4.1c0,3.9,3.3,7.2,7.3,7.2c4,0,7.3-3.2,7.3-7.2v-4.1c0-13.5-12.7-24.4-26.5-24.4H33.8c-13.9,0-23.8,11-23.8,24.4v93.3c0,6.9,2.1,12.9,7.4,17.6c1.4,1.2,2.4,1.8,4.1,1.8c2,0,4.4-0.8,5.8-2.4c2.6-3,2.7-7.5-0.3-10.1c-2.2-1.9-2.6-4.1-2.6-6.9V37.3C24.5,31.6,27.8,27.1,33.8,27.1z"/></g></g>
</svg>